<svg fill="#ffffff" height="512" viewBox="0 0 60 60" width="512" xmlns="http://www.w3.org/2000/svg"><path d="m10 28h40v4h-40z"/><path d="m10 57a1 1 0 0 0 1 1h3v-16a1 1 0 0 1 2 0v16h6v-5a1 1 0 0 1 2 0v5h5v-12a1 1 0 0 1 2 0v12h4c-.038-2.681.495-9.545 6.472-13.814a1 1 0 0 1 1.578.814c0 .084.022 8.136 1.7 13h4.25a1 1 0 0 0 1-1v-23h-40zm31-20a1 1 0 0 1 2 0v2a1 1 0 0 1 -2 0zm-12 3a1 1 0 0 1 2 0v1a1 1 0 0 1 -2 0zm-15-3a1 1 0 0 1 2 0v1a1 1 0 0 1 -2 0z"/><path d="m46.737 20.218-9.474-1.776a4 4 0 0 1 -3.263-3.932v-8.51a4 4 0 0 0 -8 0v8.51a4 4 0 0 1 -3.263 3.932l-9.474 1.776a4 4 0 0 0 -3.263 3.931v1.851h40v-1.851a4 4 0 0 0 -3.263-3.931zm-15.737-14.218a1 1 0 0 1 -2 0v-1a1 1 0 0 1 2 0z"/></svg>