<svg fill="#fff" height="512" viewBox="0 0 512 512" width="512" xmlns="http://www.w3.org/2000/svg"><path id="_x30_1" d="m301.157 290.055c-21.632-.875-48.175-13.59-78.912-28.32-53.297-25.587-119.296-56.96-207.192-53.644l4.287-15.554c109.316-8.414 200.04 24.154 267.033 53.722 39.337 17.333 91.374 26.065 155.329 26.065 21.764 0 45.201-1.221 69.7-3.266-.69 6.104-2.229 11.731-5.295 15.555-1.979 2.494-5.35 5.441-10.206 5.441h-194.744zm-294.65-50.936c.504 0 60.637 1.062 86.556 6.636 45.826 9.821 84.406 28.269 117.823 44.3h-194.665c-4.857 0-8.241-2.945-10.219-5.441-4.154-5.202-6.344-13.352-5.959-22.029zm484.192-54.2 2.203 8.016c-46.809.796-132.487-16.191-193.178-43.105h167.166c14.758-.001 21.793 26.224 23.809 35.089zm-445.467-35.09h194.16c56.39 44.327 183.862 74.293 250.604 74.293 4.141 0 7.71-.292 11.36-.504l4.021 14.651c-112.064 8.653-175.687-6.317-209.236-21.102-67.207-29.674-157.784-62.03-267.034-56.191 4.393-6.634 10.153-11.147 16.125-11.147zm450.669 212.342h-479.68c-8.294 0-14.877-8.919-15.992-21.765-.053-.559-.226-23.119-.226-23.119 5.069 2.574 10.537 3.955 16.217 3.955h479.68c5.627 0 11.067-1.381 16.099-3.875 0 11.439-.014 21.049-.106 23.039-1.115 12.846-7.697 21.765-15.992 21.765z"/></svg>