<svg fill="#ffffff" enable-background="new 0 0 512 512" viewBox="0 0 512 512" xmlns="http://www.w3.org/2000/svg"><g fill="#ffffff"><ellipse cx="125.284" cy="158.531" rx="24.302" ry="24.302" transform="matrix(.973 -.23 .23 .973 -33.071 33.025)"/><path d="m246.1068 279.24533-4.94693-4.94736-7.68576 5.45532-.3092.3092c-7.06758-4.35086-16.03407-4.35086-23.10167 0l-.30898-.3092-7.68597-5.45532-4.94695 4.94736 5.45512 7.68576.30898.3092c-4.35062 7.06735-4.35062 16.03409 0 23.10123l-.30898.30942-5.45512 7.68555 4.94695 4.94739 7.68597-5.45514.30898-.30942c7.0676 4.35107 16.03409 4.35107 23.10167 0l.3092.30942 7.68576 5.45514 4.94693-4.94739-5.4549-7.68555-.3092-.30942c4.35085-7.06714 4.35085-16.03387 0-23.10123l.3092-.3092zm-24.49262 35.44727c-8.79025 0-15.90157-7.11176-15.90157-15.90158 0-8.79004 7.11131-15.90158 15.90157-15.90158 8.79004 0 15.90158 7.11154 15.90158 15.90158 0 8.78982-7.11154 15.90158-15.90158 15.90158z"/><path d="m230.61734 177.04327c-.04129.40703-.08215.81407-.125 1.20587-.0276.5137-.05499 1.02719-.06737 1.53891-.03886.54596-.04527 1.10318-.05167 1.6604.00397.15414-.00883.29483-.00685.43375l-12.0322 4.45045.61089 4.8067 12.76279 1.29973c.00397.03047.00574.04572.00972.07597.17822.67294.38693 1.34213.58018 2.01309.10733.35735.21466.71469.32178 1.07204.14355.39908.30412.81142.44945 1.22597.21423.591.42845 1.18202.67316 1.76927.019.02849.02496.0742.04396.10248l-9.45592 8.66747 2.39163 4.22517 12.2906-3.63307c.09164.11198.18309.22417.27473.33615.33548.45186.68443.88673 1.03339 1.32159.32797.39113.6407.78426.98369 1.1734.25552.30765.53955.59608.81032.90175.43066.47087.8768.93974 1.32094 1.39337.05322.05499.10667.10999.16011.16521l-5.36855 11.64128 3.84045 2.97447 9.92877-8.10936c.0667.03799.11617.06273.18286.10049.51791.30522 1.04906.59322 1.59567.87923.36552.20097.73103.40173 1.11179.60072.41322.21025.83969.4035 1.26616.59653.50821.22902 1.01837.4733 1.54004.68553.06668.03777.13318.07576.21313.09651l-.55017 12.82198 4.66248 1.29355 6.1261-11.274c.06271.00751.14069.01303.2034.02054.66211.10138 1.32028.17227 1.97842.24316.37479.0296.76682.07266 1.1416.10226.5307.04085 1.05942.06625 1.58817.09187.54398.02362 1.07092.03401 1.62814.04042.13892-.00221.29483.00905.43375.00684l4.45023 12.0322 4.80692-.61089 1.29974-12.76279c.01523-.00198.0455-.00595.07397-.02495.6597-.16101 1.31543-.35249 1.96939-.55943.37256-.1091.74515-.21843 1.11752-.32753.38406-.14156.76791-.28291 1.15176-.42448.61948-.23322 1.25644-.45341 1.87393-.70187.01328-.01723.04373-.02098.07224-.03998l8.66745 9.45592 4.22498-2.39186-3.63309-12.29059c.12744-.09343.23743-.20009.35138-.2765.43686-.33372.85825-.66545 1.27789-1.01241.40637-.32996.81274-.65991 1.21713-1.0049.29239-.25354.5676-.52032.84476-.77211.49936-.44966.98148-.91301 1.44836-1.37416.05499-.05322.09695-.08945.15195-.14288l11.6413 5.36832 2.97446-3.84044-8.10913-9.92877c.03778-.06648.06052-.13141.09851-.19789.29175-.5009.56848-.9998.84323-1.51396.22748-.39975.4397-.79773.65173-1.19571.18375-.37877.35049-.771.53204-1.16501.25574-.54242.52475-1.10229.76328-1.65819.02274-.0647.04724-.11418.07001-.17888l12.82217.55014 1.27811-4.66048-11.25876-6.12808c.00751-.06271.01501-.12544.02231-.18816.10138-.66212.1705-1.33551.23941-2.00891.04504-.37677.07465-.75156.10425-1.12613.04083-.53072.06845-1.04443.07861-1.5714.03888-.54594.04529-1.10316.05389-1.64514-.00223-.13892.00882-.29485.00662-.43376l12.03195-4.45023-.61066-4.80692-12.76279-1.29974c-.00375-.03047-.00574-.04572-.02472-.07397-.16122-.6597-.35095-1.3004-.55566-1.93889-.11111-.38783-.2222-.77565-.34851-1.16148-.1091-.37257-.26392-.73943-.4035-1.10803-.22021-.63672-.45541-1.27145-.70587-1.90421-.01898-.02849-.02097-.04373-.03998-.07222l9.45593-8.66747-2.39163-4.22496-12.29059 3.63284c-.09146-.11197-.18112-.20871-.25754-.32266-.35269-.46535-.70166-.90021-1.06784-1.34833-.31271-.3929-.62347-.77078-.95145-1.16191-.27054-.30566-.55457-.59433-.84058-.89799-.43088-.47087-.86154-.94151-1.30569-1.39537-.05322-.05499-.10666-.10999-.1601-.16498l5.36832-11.64128-3.84045-2.97447-9.92853 8.10913c-.06671-.03798-.13141-.0605-.19812-.0985-.50266-.30699-1.01682-.58173-1.53076-.85669-.38272-.21402-.7807-.42625-1.1767-.62326s-.80722-.39201-1.20145-.57378c-.54068-.24051-1.06784-.49803-1.60651-.72331-.06473-.02274-.13141-.0605-.19614-.08325l.55017-12.82219-4.66248-1.29333-6.1261 11.274c-.07794-.00552-.15591-.01126-.23587-.03203-.62964-.08989-1.25732-.16476-1.89847-.2224-.40704-.04108-.79904-.08392-1.20609-.12502-.51349-.02737-1.02719-.05499-1.53891-.06714-.5592-.02187-1.10318-.04527-1.6604-.0519-.13892.00221-.29483-.00883-.43375-.00662l-4.45026-12.0322-4.80692.61066-1.29971 12.76301c-.03049.00375-.06073.00772-.10446.0287-.61398.15526-1.23944.34299-1.84946.52873-.4183.11484-.82135.22792-1.22043.37148-.35538.12236-.70874.25995-1.07956.38451-.64996.23698-1.29996.47418-1.93271.72485-.02847.019-.05896.02275-.0722.03998l-8.68248-9.45415-4.20995 2.38986 3.63307 12.2906c-.11197.09164-.22417.18309-.33615.27452-.45209.33569-.88673.68465-1.32159 1.0336-.39113.32797-.78426.6407-1.1734.9839-.30765.25531-.59608.53934-.88673.80812-.48589.43265-.95476.87878-1.40663 1.33815-.05675.03799-.11197.09145-.16696.14488l-11.64128-5.36855-2.97447 3.84045 8.10915 9.92877c-.03777.0667-.06252.11638-.10049.18286-.30501.5179-.593 1.04906-.881 1.58044-.19899.38075-.39996.74626-.59874 1.12724-.21025.41299-.38826.83748-.58128 1.26395-.24426.51018-.48875 1.02036-.70056 1.54202-.036.08192-.07397.14841-.09673.21312l-12.80695-.55193-1.30835 4.66425 11.27377 6.12608c-.02077.07996-.02629.15791-.0318.23587-.09007.62972-.16493 1.25762-.22236 1.89876zm40.8103-22.23526c14.80103-1.8808 28.31076 8.58287 30.19156 23.38393 1.8786 14.78581-8.5831 28.31076-23.38394 30.19157-14.80081 1.88057-28.31274-8.59811-30.19133-23.38371-1.88081-14.80105 8.58266-28.31099 23.38371-30.19179z"/><path d="m260.92111 175.27908c-2.37817 5.24863-1.59326 11.42462 2.02191 15.91151l-.18594.24007-3.08469 5.77116 3.84024 2.97447 4.81641-4.43013.18573-.23985c5.24863 2.37796 11.42441 1.59326 15.91129-2.02193l.2403.18596 5.77094 3.08447 2.97449-3.84045-4.4299-4.81596-.24008-.18596c2.37817-5.24863 1.59348-11.42441-2.0217-15.91151l.18594-.24007 3.08447-5.77095-3.84045-2.97449-4.81619 4.42992-.18594.24008c-5.24841-2.37817-11.42441-1.59326-15.91132 2.02193l-.24005-.18596-5.77097-3.08469-2.97446 3.84044 4.4299 4.81619zm12.51874-4.63575c6.05408-.76923 11.5748 3.50652 12.34402 9.56082.76926 6.05409-3.5065 11.5748-9.56082 12.34404-6.05429.76924-11.57458-3.50629-12.34402-9.56059-.76926-6.05431 3.5065-11.5748 9.56082-12.34427z"/><path d="m221.61418 291.23026c-4.17593 0-7.56097 3.38507-7.56097 7.56076 0 4.17572 3.38504 7.56076 7.56097 7.56076 4.1757 0 7.56076-3.38504 7.56076-7.56076 0-4.17569-3.38505-7.56076-7.56076-7.56076z"/><path d="m336.97791 298.03546c-13.11218 0-23.73752-10.62534-23.73752-23.73749 0-13.11197 10.62534-23.7373 23.73752-23.7373 7.68951 0 14.50375 3.67039 18.84137 9.33774h19.25171l.10358-.05984-6.57242-11.3811-3.4725 1.99367c-5.422-6.39729-12.98032-10.91025-21.57932-12.46573v-3.98732h-13.14508v3.98732c-8.59879 1.55548-16.1571 6.06844-21.57953 12.46573l-3.47229-1.99367-6.57245 11.3811 3.46149 1.9939c-1.40222 3.88858-2.16904 8.08417-2.16904 12.46552 0 4.3707.76682 8.56607 2.16904 12.46594l-3.46149 1.99344 3.68033 6.3732-17.26291-4.0032c0-.04419 0-.06625-.02231-.11066-.1102-.97177-.2648-1.9212-.44171-2.87088-.08813-.57446-.17645-1.14868-.2869-1.72269-.08835-.55212-.24316-1.10428-.37567-1.6564-.19855-.94968-.41962-1.8996-.66235-2.84903-.02206-.04419-.02206-.06625-.04437-.11044l15.08463-10.66751-2.65048-6.47086-18.22055 2.95947c-.11023-.1767-.22064-.3313-.30899-.50818-.41962-.72861-.83923-1.41327-1.28094-2.12-.37546-.61862-.75113-1.21472-1.14847-1.8331-.33127-.4859-.68463-.94968-1.03799-1.43558-.53027-.75089-1.06033-1.50201-1.61249-2.23062-.06601-.08856-.13251-.1767-.19855-.26501l9.78391-15.65865-4.94717-4.94716-15.65863 9.78389c-.08835-.06648-.17691-.11043-.26501-.17668-.66257-.53006-1.34723-1.01595-2.03186-1.50182-.50821-.37546-1.03827-.75092-1.56808-1.10428-.53006-.35338-1.08218-.70674-1.61224-1.03802-.72882-.44171-1.43578-.9055-2.16438-1.32513-.08833-.04416-.17668-.11043-.26524-.15482l3.11429-18.22055-6.42712-2.69421-10.79959 14.99606c-.11064-.02231-.22107-.04417-.33128-.08833-.88364-.24295-1.76685-.46381-2.67256-.66257-.57401-.13252-1.12614-.26503-1.70038-.39754-.72882-.13252-1.45786-.26503-2.18646-.37569-.7953-.13228-1.56807-.2648-2.36314-.37523-.19878-.02208-.41963-.06625-.61839-.08833l-4.17439-17.99971h-6.97881l-4.17438 17.99971c-.04395 0-.08812 0-.1546.02208-.90529.11043-1.83287.26503-2.73837.4194-.61841.08856-1.21471.17691-1.81123.30942-.52985.11021-1.05989.24272-1.61203.35336-.97176.22086-1.94353.4415-2.8932.68466-.04439.02208-.08833.02208-.11043.04395l-10.68939-15.08418-6.44897 2.65004 2.95924 18.22055c-.17647.11064-.35315.22107-.53004.3315-.70674.39754-1.39139.81717-2.07605 1.2368-.61816.39754-1.23679.77298-1.85497 1.19238-.4861.30943-.94968.6628-1.41347.99408-.77299.52983-1.5239 1.08197-2.25294 1.65642-.08812.04416-.17647.1102-.26503.17668l-15.6584-9.78389-4.94716 4.94716 9.78389 15.65865c-.06627.08832-.11066.15436-.1767.24292-.53004.68466-1.03824 1.39139-1.54597 2.09814-.35338.50797-.70697.99362-1.0601 1.5018-.37546.55212-.70674 1.12637-1.0601 1.70038-.44171.68463-.88342 1.36951-1.28096 2.07602-.06648.11066-.13252.19901-.1767.28711l-18.19846-3.11383-2.71652 6.42667 14.99606 10.80005c-.04439.11041-.06648.22061-.08835.33127-.24315.88342-.46379 1.76685-.66278 2.67212-.13251.57446-.26503 1.14868-.39754 1.70081-.13251.72882-.2648 1.45743-.37523 2.18649-.1546.77298-.26503 1.56805-.37546 2.36313-.02208.22064-.06625.41965-.08856.61841l-1.80063.41763 14.90352 46.66183c.03468.04639.06958.09277.10448.13916l-.03976.0636 4.67154 14.62613 6.1899-3.86761c.08856.06625.15483.11041.24316.1767.68466.53003 1.39117 1.03799 2.12021 1.54596.48589.35339.97177.70651 1.47951 1.06012.55214.37546 1.12637.72882 1.70081 1.08218.68466.41962 1.36931.86133 2.07605 1.25888.08812.06604.17668.13251.28711.1767l-3.11406 18.22055 6.42688 2.69443 10.79982-14.99606c.08835.02206.19855.04395.28711.06604.9276.26501 1.85497.48608 2.78278.70694.53006.1102 1.0822.24274 1.61224.35336.75069.1546 1.50182.28711 2.25273.41965.77299.13251 1.52368.24292 2.31897.35336.19855.02206.41963.06625.61818.0881l4.17438 17.99994h6.97881l4.17439-17.99994c.02208 0 .06625 0 .1102-.02185.97177-.11066 1.94353-.26526 2.9153-.44171.55212-.08856 1.10426-.1767 1.6564-.26505.57445-.13251 1.14867-.26501 1.7229-.39752.92758-.22086 1.87726-.41962 2.80464-.66278.02208-.02188.06647-.02188.11064-.04395l10.66708 15.08417 6.47128-2.65002-2.95946-18.22055c.19876-.11066.37523-.24316.55214-.3313.68465-.39752 1.34721-.79507 2.00955-1.21469.6407-.39755 1.28117-.79507 1.92143-1.21472.46402-.30917.90573-.64047 1.34744-.94989.79507-.55212 1.56787-1.12613 2.31897-1.70035.08813-.06628.1546-.11044.24295-.1767l15.65863 9.78387 4.94717-4.94714-9.78391-15.65884c.06604-.08813.11044-.17648.17648-.26505.50818-.66235.99384-1.32492 1.47995-2.00955.39752-.53006.77298-1.06012 1.14822-1.59039.33148-.50772.64069-1.03778.97174-1.56784.46402-.72882.94992-1.47974 1.39139-2.23065.0444-.08832.08859-.15457.13254-.24292l18.22055 3.11404 2.67255-6.42688-14.97418-10.7998c.02209-.08835.04437-.1767.06647-.26505.26505-.92758.48566-1.87726.70673-2.82715.13254-.52985.24295-1.05991.35315-1.58994.15485-.75113.28714-1.47974.39755-2.23065.1546-.77298.26526-1.5683.37567-2.34106.02209-.19901.06604-.41962.08835-.61841l17.99969-4.17416v-5.87408l2.15533 3.73245 3.47229-1.99387c5.42242 6.39728 12.98074 10.91025 21.57953 12.46573v3.98755h13.14508v-3.98755c5.88159-1.06387 11.25565-3.53766 15.81302-7.02539v-10.1123h-8.43182c-3.91935 2.85672-8.73136 4.56238-13.95368 4.56238zm-115.36373 39.64816c-21.48943 0-38.89282-17.42548-38.89282-38.89261 0-21.4892 17.4034-38.89261 38.89282-38.89261 21.48921 0 38.89259 17.40341 38.89259 38.89261 0 21.46714-17.40338 38.89261-38.89259 38.89261z"/><path d="m410.75037 211.48033c13.40128 0 24.26669-10.86452 24.26669-24.26646 0-13.40126-10.86542-24.26579-24.26669-24.26579-13.40106 0-24.26645 10.86453-24.26645 24.26579 0 13.40194 10.86538 24.26646 24.26645 24.26646z"/><path d="m454.96051 311.47009c17.34088 0 22.0473-19.54059 14.19083-30.22955-.43884-1.73218-1.05215-3.43982-1.88455-5.07813-9.24567-18.19339-18.49133-36.38699-27.73721-54.58038-5.24643-10.32387-19.70471-13.23297-29.22687-7.66367-6.97769 4.08118-10.3855 11.25566-10.28391 18.64481l6.104-9.05948c5.33099-7.91611 14.72507-7.80127 20.85535-3.66774 5.3237 3.58603 8.75977 10.84775 3.72714 18.31685-3.27463 4.86191-6.52515 9.74258-9.7757 14.62503-2.50229 3.75696-5.0459 7.56848-7.60782 11.3884 1.74078 3.42548 3.48178 6.85114 5.22278 10.27682-4.05621 0-8.11221 0-12.16846 0-1.71713 2.51401-3.44202 5.01895-5.17484 7.50311-5.49069 7.86975-12.36084 8.51883-19.69455 8.51883-.72131 0-1.44638-.00552-2.17499-.01303-.78094-.00574-1.57623-.01303-2.3848-.01303h-13.09338c-.1312.82733-.22903 1.66415-.25046 2.51776-.63297 25.18057.00595 79.10812.00595 79.10812-.48785 19.40564 29.60919 19.33167 30.09506 0l1.44882-13.58923 6.58502-62.27057v15.26508z"/><path d="m337.08237 288.54004h39.86545c9.26266 0 16.71167.89642 22.69531-7.68137 10.06018-14.42139 19.66208-29.18291 29.48749-43.76598 8.95898-13.29726-12.55432-25.70667-21.43335-12.52823-8.79333 13.05099-17.58649 26.1022-26.37982 39.15321-6.98654 0-43.28519 0-44.23508 0-15.99832.00001-15.97184 24.82237 0 24.82237z"/><path d="m496.51483 365.72052c-4.42484-5.83081-8.84964-11.66116-13.27472-17.49173-5.64395-7.43686-11.04385-17.60303-18.0538-23.79559-.32355-3.34109-.95541-6.72571-1.33682-10.00098-.06958-.59808-.13916-1.19595-.20892-1.79425-2.01401.71646-4.25391 1.15421-6.78424 1.15421-5.85599 0-13.51193 0-21.30746 0 .02496.21335.04971.4267.07443.64005.83969 7.21158.54398 17.03323 4.45068 23.27856 9.2576 14.80017 21.50665 28.33881 32.06839 42.25601 4.64194 6.11658 12.11658 9.15619 19.30914 5.06287 6.01721-3.42414 9.66153-13.25022 5.06332-19.30915z"/><path d="m154.20984 297.78082c-.92229-3.27505-2.45679-5.86215-4.36674-7.86111-.95343-1.66281-2.17674-3.1781-3.73511-4.43896-10.45528-8.45963-20.91101-16.91928-31.36629-25.37891-.80811-2.13235-2.08443-3.9986-3.6907-5.56424 2.24676-13.1877 4.49352-26.3754 6.74049-39.56288 8.08176 4.26604 16.22933 8.40817 24.56925 11.79829 7.34366 2.98508 16.61671 2.08421 24.42813 2.43582 6.12056.27541 12.24112.55058 18.36147.82599l-1.03227-6.35577 11.09731-4.56021 5.75505 8.12106c5.56908-6.14684 2.8243-19.1868-8.19838-19.68262-7.73721-.34807-15.47466-.69614-23.2121-1.0442-5.24399-.23608-10.48819-.47195-15.73218-.70784-.65086-.02914-1.41214-.14333-2.17387-.21974-2.12993-1.20499-4.95599-2.10983-6.78665-3.02594-5.0894-2.54623-10.17879-5.09248-15.26794-7.63893-3.92482-1.96364-7.84986-3.92747-11.77489-5.89133-2.40291-5.22101-6.76634-9.38104-13.14199-11.13286-7.32533-2.01288-16.56303.63297-21.98592 6.45493-12.35309 8.45544-25.59513 16.54051-36.6359 26.3763-6.38669 5.6899-10.89611 14.71779-15.71981 21.69902-4.96946 7.19171-9.9387 14.38364-14.90795 21.57535-8.3682 12.11125 11.40209 23.5341 19.7047 11.51805 4.61477-6.67889 9.22976-13.35777 13.84453-20.03665 3.10566-4.49463 11.04983-16.42964 11.75303-16.89763.29661-.4384 3.9617-3.31328 4.96748-4.03305 2.75583-1.97246 5.51166-3.94469 8.26727-5.91693-2.3382 13.72461-4.67639 27.44922-7.0148 41.17381-1.18578 6.9585-.67693 15.50027 5.19032 20.5358-4.30402 11.54364-8.59679 23.16879-11.66447 34.90793-.81982 1.00067-24.57765 48.3454-24.57765 48.3454-11.23071 17.12668 16.23396 33.04282 27.39951 16.01578 0 0 12.40919-19.79526 17.85901-28.10605 4.96262-7.56802 11.11785-15.0654 14.29927-23.60721 2.28585-6.13712 4.43256-12.33344 6.54416-18.5441l-15.08573-17.34863 16.37906 13.57068c4.18455 3.38593 16.39452 12.88184 18.47321 13.84894 5.1647 18.3385 21.4161 56.08817 21.4161 56.08817 5.62387 19.96906 36.78499 11.48404 31.13351-8.5831-.00001-.00002-13.84011-46.88403-20.11152-69.15243zm-52.05954-60.76477-7.28137-10.57344 13.70583-31.79741 2.14163 33.78511z"/></g></svg>