<svg fill="#ffffff" viewBox="0 0 64 64" xmlns="http://www.w3.org/2000/svg" data-name="credit card wallet"><path d="m53.00098 36.29688c-.36035 0-.70898-.19531-.8877-.53711-.25488-.48926-.06543-1.09375.42383-1.34912l2.60352-1.35986c.4873-.25488 1.09375-.06641 1.34961.42334.25488.48926.06543 1.09375-.42383 1.34912l-2.60352 1.35986c-.14746.07715-.30566.11377-.46191.11377zm-3.53809-2.5376 4.75195-2.48193c.48926-.25537.67871-.85986.42383-1.34912-.25586-.49023-.8623-.6792-1.34961-.42334l-4.75195 2.48193c-.48926.25537-.67871.85986-.42383 1.34912.17871.3418.52734.53711.8877.53711.15625 0 .31445-.03662.46191-.11377zm-9.46289 12.24072c0-2.20557-1.79395-4-4-4s-4 1.79443-4 4 1.79395 4 4 4 4-1.79443 4-4zm-2 0c0 1.10303-.89746 2-2 2s-2-.89697-2-2 .89746-2 2-2 2 .89697 2 2zm4-11c0-.55225-.44727-1-1-1h-34c-.55273 0-1 .44775-1 1s.44727 1 1 1h34c.55273 0 1-.44775 1-1zm0 22c0-.55225-.44727-1-1-1h-34c-.55273 0-1 .44775-1 1s.44727 1 1 1h34c.55273 0 1-.44775 1-1zm19.46387-20.4834-11.46387 5.98743v8.49597c0 1.6543-1.3457 3-3 3h-1v3c0 2.75684-2.24316 5-5 5h-34c-2.75684 0-5-2.24316-5-5v-30c0-2.75684 2.24316-5 5-5h7.51508l14.71832-19.59814c.15918-.21191.39648-.35205.65918-.38965.2627-.03564.5293.03174.74121.19043l13.01459 9.77411 3.9278-2.05145c.23535-.12305.50586-.14746.7627-.06787.25293.07959.46387.25586.58691.49121l12.96191 24.81885c.25488.48926.06543 1.09375-.42383 1.34912zm-11.07129-19.03711-23.97327 12.52051h4.32129l20.57776-10.74756zm-36.93305 12.52051h8.64014l27.36743-14.2934-1.85187-3.54596zm25.12775-19.32275-5.61896 6.8775 8.71539-4.55188-3.09644-2.32562zm-3.20105-2.40411-11.42792 13.98743 4.5058-2.35333 8.52277-10.43195zm-23.17145 20.1209 7.23914-3.78094 14.33185-17.54199-3.55334-2.66876zm-8.21478-1.39404c0 1.6543 1.3457 3 3 3h1.50702l4.50604-6h-6.01306c-1.6543 0-3 1.3457-3 3zm40 27h-8c-4.41113 0-8-3.58887-8-8s3.58887-8 8-8h8v-3c0-1.6543-1.3457-3-3-3h-34c-1.125 0-2.16406-.37354-3-1.00244v26.00244c0 1.6543 1.3457 3 3 3h34c1.6543 0 3-1.3457 3-3zm4-13c0-.55127-.44824-1-1-1h-11c-3.30859 0-6 2.69141-6 6s2.69141 6 6 6h11c.55176 0 1-.44873 1-1zm11.65137-5.79297-7.40674-14.18219-17.18451 8.97516h5.93988c2.75684 0 5 2.24316 5 5v3h1c1.41077 0 2.58911.98199 2.90784 2.29608z"/></svg>